<svg width="31" height="31" viewBox="0 0 31 31" fill="none" xmlns="http://www.w3.org/2000/svg">
<path d="M17.1494 3C13.6977 3 10.8994 5.79823 10.8994 9.25C10.8994 9.94035 11.4591 10.5 12.1494 10.5C12.8398 10.5 13.3994 9.94035 13.3994 9.25C13.3994 7.17894 15.0784 5.5 17.1494 5.5H22.1494C24.2205 5.5 25.8994 7.17894 25.8994 9.25V21.75C25.8994 23.8211 24.2205 25.5 22.1494 25.5H17.1494C15.0784 25.5 13.3994 23.8211 13.3994 21.75C13.3994 21.0596 12.8398 20.5 12.1494 20.5C11.4591 20.5 10.8994 21.0596 10.8994 21.75C10.8994 25.2018 13.6977 28 17.1494 28H22.1494C25.6012 28 28.3994 25.2018 28.3994 21.75V9.25C28.3994 5.79823 25.6012 3 22.1494 3H17.1494Z" fill="black"/>
<path d="M18.3994 14.25C19.0898 14.25 19.6494 14.8096 19.6494 15.5C19.6494 16.1904 19.0898 16.75 18.3994 16.75V14.25Z" fill="black"/>
<path d="M8.04701 14.25C8.15829 14.1127 8.2649 13.9796 8.36575 13.8525C8.67261 13.4654 8.93241 13.1255 9.11586 12.8819C9.20767 12.7599 9.28057 12.6618 9.33091 12.5936L9.38912 12.5145L9.40472 12.4932L9.41025 12.4856C9.4103 12.4855 9.41087 12.4847 8.39961 11.75L9.41025 12.4856C9.81602 11.9271 9.69285 11.1445 9.13434 10.7387C8.57586 10.333 7.7942 10.4567 7.3884 11.0152L7.38487 11.02L7.37207 11.0375L7.31987 11.1085C7.2737 11.171 7.20542 11.2629 7.11867 11.3781C6.94501 11.6088 6.69815 11.9318 6.40681 12.2992C5.81776 13.0421 5.07171 13.9351 4.39072 14.6161L3.50684 15.5L4.39072 16.3839C5.07171 17.0649 5.81776 17.9579 6.40681 18.7007C6.69815 19.0682 6.94501 19.3912 7.11867 19.6219C7.20542 19.7371 7.2737 19.829 7.31987 19.8915L7.37207 19.9625L7.38487 19.98L7.38779 19.984C7.79359 20.5424 8.57586 20.667 9.13434 20.2612C9.69285 19.8555 9.81666 19.0737 9.41087 18.5152L8.39961 19.25C9.41087 18.5152 9.41094 18.5154 9.41087 18.5152L9.40472 18.5069L9.38912 18.4855L9.33091 18.4064C9.28057 18.3381 9.20767 18.2401 9.11586 18.1181C8.93241 17.8745 8.67261 17.5346 8.36575 17.1475C8.2649 17.0204 8.15829 16.8872 8.04701 16.75H18.3996V14.25H8.04701Z" fill="black"/>
</svg>