<svg width="31" height="31" viewBox="0 0 31 31" fill="none" xmlns="http://www.w3.org/2000/svg">
<g clip-path="url(#clip0_21_1457)">
<path d="M15.5 4.25C13.4289 4.25 11.75 5.92894 11.75 8C11.75 9.63278 12.7935 11.0218 14.25 11.5366V14.25H10.5C8.42894 14.25 6.75 15.9289 6.75 18V19.4634C5.29351 19.9781 4.25 21.3673 4.25 23C4.25 25.0711 5.92894 26.75 8 26.75C10.0711 26.75 11.75 25.0711 11.75 23C11.75 21.3673 10.7065 19.9781 9.25 19.4634V18C9.25 17.3096 9.80965 16.75 10.5 16.75H20.5C21.1904 16.75 21.75 17.3096 21.75 18V19.4634C20.2935 19.9781 19.25 21.3673 19.25 23C19.25 25.0711 20.9289 26.75 23 26.75C25.0711 26.75 26.75 25.0711 26.75 23C26.75 21.3673 25.7065 19.9781 24.25 19.4634V18C24.25 15.9289 22.5711 14.25 20.5 14.25H16.75V11.5366C18.2065 11.0218 19.25 9.63278 19.25 8C19.25 5.92894 17.5711 4.25 15.5 4.25Z" fill="black"/>
</g>
<defs>
<clipPath id="clip0_21_1457">
<rect width="30" height="30" fill="white" transform="translate(0.5 0.5)"/>
</clipPath>
</defs>
</svg>