<svg width="29" height="29" viewBox="0 0 29 29" fill="none" xmlns="http://www.w3.org/2000/svg">
<path d="M17.2179 3.72127L17.2179 3.7212L17.1166 3.20794C17.1166 3.20791 17.1166 3.20789 17.1166 3.20787C16.9851 2.5426 16.3716 2.02498 15.6156 2.02498H13.7844C13.0283 2.02498 12.415 2.54259 12.2835 3.20786L12.182 3.72142C11.6604 6.36115 8.87343 7.88063 6.32889 7.02365L6.32888 7.02365L5.81958 6.85212C5.81958 6.85212 5.81957 6.85211 5.81957 6.85211C5.10776 6.61239 4.3383 6.904 3.98015 7.50542L3.06457 9.04288L2.20538 8.53122L3.06457 9.04288C2.71324 9.63283 2.83667 10.3849 3.38354 10.8432C3.38354 10.8432 3.38354 10.8432 3.38355 10.8432L3.79147 11.1851C5.87138 12.9284 5.87133 16.0715 3.7915 17.8149L3.7914 17.8149L3.38356 18.1567C3.38352 18.1567 3.38349 18.1568 3.38346 18.1568C2.83666 18.6152 2.71326 19.3672 3.06456 19.9571C3.06456 19.9571 3.06457 19.9571 3.06457 19.9571L3.9801 21.4944L3.12386 22.0044L3.98011 21.4944C4.33832 22.0959 5.10781 22.3875 5.81953 22.1478L5.81959 22.1477L6.32875 21.9762C8.87336 21.1192 11.6604 22.6387 12.182 25.2784L12.182 25.2785L12.2835 25.7921C12.2835 25.7921 12.2835 25.7921 12.2835 25.7921C12.415 26.4573 13.0284 26.975 13.7844 26.975H15.6156C16.3716 26.975 16.9851 26.4574 17.1166 25.7921C17.1166 25.7921 17.1166 25.792 17.1166 25.792L17.2179 25.2787L17.2179 25.2787C17.7395 22.6388 20.5265 21.1191 23.0712 21.9762L23.0714 21.9763L23.5804 22.1478C23.5805 22.1479 23.5805 22.1479 23.5806 22.1479C24.2925 22.3875 25.0619 22.0959 25.42 21.4946C25.42 21.4946 25.42 21.4946 25.42 21.4946L26.3355 19.9572L26.3355 19.9571C26.6868 19.3672 26.5634 18.6152 26.0165 18.1567L17.2179 3.72127ZM17.2179 3.72127C17.7395 6.36103 20.5265 7.88064 23.0711 7.02366L23.5805 6.85209C24.2924 6.61236 25.0618 6.904 25.4199 7.50534L25.4199 7.5054L26.3355 9.04284C26.6868 9.63277 26.5634 10.3848 26.0165 10.8432L26.6588 11.6096L26.0165 10.8432L25.6086 11.1851C23.5286 12.9283 23.5286 16.0717 25.6086 17.8149C25.6086 17.8149 25.6086 17.8149 25.6086 17.8149L26.0165 18.1567L17.2179 3.72127ZM14.7 19.35C17.3786 19.35 19.55 17.1785 19.55 14.5C19.55 11.8213 17.3786 9.64998 14.7 9.64998C12.0214 9.64998 9.85 11.8213 9.85 14.5C9.85 17.1785 12.0214 19.35 14.7 19.35Z" stroke="black" stroke-width="2"/>
</svg>